<?xml version="1.0" encoding="UTF-8"?><svg id="Layer_1" xmlns="http://www.w3.org/2000/svg" viewBox="0 0 1037.05 418"><defs><style>.cls-1{fill:none;stroke:#000;stroke-linecap:round;stroke-linejoin:round;stroke-width:3px;}</style></defs><path class="cls-1" d="M888.03,307.03c6.74,14.98,10.9,40.6,18.31,47.71,2.14,2.27,5.35,1.98,7.59-.24,3.4-3.37,4.89-7.89,6.19-12.33,34.15-138.37,14.82-254.23,10.97-276.5-.63-3.62-3.04-5.1-7.05-3.09-8.74,4.24-25.05,11.51-29.47,16.52"/><path class="cls-1" d="M103.42,315.86c3.19,9.62,7.87,43.57,22.85,40.22,19.99-4.46,23.41-26.81,26.57-39.44,18-71.97,7.88-183.54,2.26-244.13-.19-2.02-1.57-2.72-3.29-2.33-5.03,1.11-12.88,4.97-21.55,6.31"/><path class="cls-1" d="M321.89,199.85c4.86,13.86-9.4,74.64,7.46,93.38,11.49,12.77,36.57,7.14,45.6,5.28,13.44-2.77,51.92-14.35,56.92-23.43,6.29-11.43,4.1-44.51,14.22-70.46"/><path class="cls-1" d="M373.2,124.36c-4.65,11.46-30.35,27.94-38.38,37.57-24.37,29.23-30.89,40.2-53.34,59.76-11.05,9.63-20.32,15.32-31.98,20.06"/><path class="cls-1" d="M330.73,89.81c2.38,.38,3.76,1.79,3.79,4.36,.85,24.36-1.24,32.36-1.35,54.51-.02,1.91,.24,4.57,1.64,6.54"/><path class="cls-1" d="M664.89,197.54c-3.15,8.27-20.76,38.63-13.84,52.8"/><path class="cls-1" d="M101.11,111.44c-.18,1.32-.39,2.64-.54,3.97-1.01,9-2.2,17.99-2.94,27.01-.52,6.33-.7,12.71-.54,19.06,.18,7.23,1.67,14.19,6.42,20.17,1.06,1.34,2.01,1.86,3.6,1.41"/><path class="cls-1" d="M746.79,100.48c-14.65,0-31.88,19.16-50.83,27.63"/><path class="cls-1" d="M548.85,212.51c-7.78,1.04-12.94,18.19-13.52,23.98-.34,3.39,1.93,5.87,5.29,4.93,9.61-2.7,18.07-10.18,23.87-18.86,1.45-2.17,4.22-3.07,5.67-2.86"/><path class="cls-1" d="M878.1,89.07c-9.68,27.17,7.72,41.02-3.9,80.25"/><path class="cls-1" d="M531.15,179.52c-5.61,6.31-9.95,19.96-6.99,28.47,2.56,7.36,10.17,9.71,16.92,10.52"/><path class="cls-1" d="M284.53,150.58c.4,4.63,5.88,8.68,8.91,9.65,6.33,2.03,10.21,2.04,16.77,1.05,1.72-.26,5.42-.86,5.77-3.43"/><path class="cls-1" d="M694.08,99.91c-7.47,25.11-3.57,54.06-18.55,97.63"/><path class="cls-1" d="M733.89,147.29c3.06,9.65,9.33,39.87-2.16,48.8"/><path class="cls-1" d="M147.45,153.01c-2.91-.26-5.83-.84-8.72-.71-4.45,.12-8.33,2.3-11.19,1.48-1.64-.47-2.61-1.89-1.88-3.4,1.5-3.11,5.75-11.29,6.07-17.24,.25-4.76-.34-5.83-4.99-5.83"/><path class="cls-1" d="M650.67,295.62c1.04,8.89,3.13,17.36,8.3,25.26,9.68,14.79,27.79,14.64,48.02-4.36,3.57-3.29,20.45-17.9,30.21-40.71,13.3-31.1,39.55-126.12,8.94-144.02-6.31-3.69-16.31,8.49-28.04,12.61"/><path class="cls-1" d="M717.79,152.76c-5.49,8.25-8.58,38.74-4.72,43.32,4.31,5.1,25.3,8.16,29.74,12.43"/><path class="cls-1" d="M826.81,157.26c.44-5.04-17.31-3.53-23.39-2.68-8.5,1.18-16.99,2.5-25.41,4.1-8.78,1.67-50.21,15.1-64.41,17.97-10.83,2.19-22.42,11.37-31.71,10.46"/><path class="cls-1" d="M328.01,176.84c4.28,1.34,13.06-6,16.69-8.2,12.93-7.87,39.58-7.87,39.58-7.87-17.54,.38-54.86,14.82-66.44,39.84-11.28,24.37-31.9,73.47-47.72,96.31-11.16,16.11-24.48,13.92-28.32,6.62-1.96-3.73-1.08-9.67-.39-14.87"/><path class="cls-1" d="M671.3,158.28c-1.07,.13-2.85-2.04-5.31-3.03-2.61-1.05-8.67-3.1-13.31-2.32"/><path class="cls-1" d="M657.59,188.44c-.1-4.58-1.32-5-7.42-4.31-2.02,.23-4.03,.6-6.04,.9"/><path class="cls-1" d="M908.34,140.6c.62,1.83-.2,2.86-1.77,3.43-3.51,1.27-9.8,2.04-11.72-.28-4.19-5.05,8.2-13.27,7.9-19.73-.1-3.16-1.82-4.64-4.62-3.67-2.07,.72-8.76,4.91-9.03,7.57"/></svg>